# xmcd
#
# Track frame offsets:
#	150
#	15112
#	31513
#	36866
#	47984
#	56951
#	66080
#	76635
#	88102
#	94129
#	106563
#	117795
#	129170
#	138887
#	143875
#	150370
#
# Disc length: 2128 seconds
#
# Revision: 0
# Processed by: cddbd v1.5.2PL0 Copyright (c) Steve Scherf et al.
# Submitted via: audiograbber 1.83.01
#
DISCID=b7084e10
DTITLE=Chartbuster Karaoke - Essential 4 Disk 30
DYEAR=1900
DGENRE=Karaoke
TTITLE0=Glenn Miller - Chattanooga Choo Choo
TTITLE1=Standards/Traditional - America The Beautiful
TTITLE2=Standards - For He's A Jolly Good Fellow
TTITLE3=Standards - This Is My Country
TTITLE4=Christian/Gospel - When The Saints Go Marching In
TTITLE5=Standards - You're A Grand Old Flag
TTITLE6=Frank Sinatra - Ain't She Sweet
TTITLE7=Tony Bennett - Jeepers Creepers
TTITLE8=Irving Kaufman - Hail Hail The Gang's All Here
TTITLE9=Mitch Miller - Tiptoe Thru The Tulips
TTITLE10=Tony Bennett - Blue Moon
TTITLE11=Peter, Paul and Mary - If I Had A Hammer
TTITLE12=Standards - I've Been Working On The Railroad
TTITLE13=Standards/Traditional - Eensy Weensy Spider
TTITLE14=Standards/Traditional - If You're Happy And You Know It (Clap Your Han
TTITLE14=ds)
TTITLE15=Standards/Traditional - He's Got The Whole World In His Hands
EXTD=
EXTT0=
EXTT1=
EXTT2=
EXTT3=
EXTT4=
EXTT5=
EXTT6=
EXTT7=
EXTT8=
EXTT9=
EXTT10=
EXTT11=
EXTT12=
EXTT13=
EXTT14=
EXTT15=
PLAYORDER=
